<svg width="30" height="30" viewBox="0 0 30 30" fill="none" xmlns="http://www.w3.org/2000/svg">
<circle cx="15" cy="15" r="15" fill="#AF0015"/>
<path d="M12.7331 6.09753C12.3391 6.22621 11.6635 6.91784 11.5429 7.328C11.4866 7.51297 11.4464 7.85879 11.4464 8.1081V8.55042L9.90226 8.58259C8.42249 8.60671 8.33403 8.61476 7.98821 8.80777C6.67733 9.54766 6.66928 11.4456 7.97213 12.1694C8.1571 12.274 8.3099 12.4027 8.3099 12.4589C8.3099 12.9978 9.44386 22.5922 9.53232 22.8013C9.70121 23.2034 10.047 23.5894 10.4331 23.7905C10.7628 23.9674 10.803 23.9674 15.186 23.9915C20.0757 24.0156 19.9953 24.0237 20.5904 23.5009C21.1534 23.0023 21.1453 23.0747 21.7646 17.4773L22.3356 12.3303L22.617 12.1855C23.4374 11.7673 23.8395 10.8103 23.5741 9.90151C23.4454 9.45919 22.7779 8.79169 22.3356 8.66301C22.1265 8.60671 21.467 8.5665 20.5824 8.5665H19.1669V8.11614C19.1669 7.46472 19.0222 7.07869 18.6281 6.63636C18.0732 6.01711 17.9204 5.99299 15.2745 6.00103C13.8751 6.00907 12.9101 6.04124 12.7331 6.09753ZM17.6791 7.4808C17.848 7.64165 17.8802 7.75424 17.8802 8.12418V8.5665H15.3066H12.7331V8.12418C12.7331 7.75424 12.7653 7.64165 12.9342 7.4808L13.1272 7.27974H15.3066H17.4861L17.6791 7.4808ZM22.1828 10.0543C22.4482 10.3117 22.4482 10.6816 22.1828 10.939L21.9897 11.14H15.3066H8.62355L8.43053 10.939C8.30186 10.8183 8.22948 10.6494 8.22948 10.4966C8.22948 10.3438 8.30186 10.175 8.43053 10.0543L8.62355 9.85326H15.3066H21.9897L22.1828 10.0543ZM20.9764 12.845C20.9523 13.0782 20.6949 15.3139 20.4215 17.807L19.9149 22.3429L19.6977 22.5359L19.4806 22.7208H15.3469C12.4436 22.7208 11.1569 22.6967 11.0121 22.6324C10.9075 22.5761 10.7789 22.4474 10.7306 22.3268C10.6904 22.2142 10.4331 20.0749 10.1596 17.5738C9.88618 15.0727 9.64491 12.8932 9.62079 12.7243L9.57253 12.4268H15.2986H21.0247L20.9764 12.845Z" fill="white"/>
<path d="M12.9341 13.9148L12.7331 14.1079V17.2524V20.3969L12.9341 20.5899C13.1915 20.8553 13.5614 20.8553 13.8188 20.5899L14.0199 20.3969V17.2524V14.1079L13.8188 13.9148C13.6982 13.7862 13.5293 13.7138 13.3765 13.7138C13.2237 13.7138 13.0548 13.7862 12.9341 13.9148Z" fill="white"/>
<path d="M16.7946 13.9148L16.5935 14.1079V17.2524V20.3969L16.7946 20.5899C17.0519 20.8553 17.4219 20.8553 17.6792 20.5899L17.8803 20.3969V17.2524V14.1079L17.6792 13.9148C17.5586 13.7862 17.3897 13.7138 17.2369 13.7138C17.0841 13.7138 16.9152 13.7862 16.7946 13.9148Z" fill="white"/>
</svg>
