<svg width="61" height="60" viewBox="0 0 61 60" fill="none" xmlns="http://www.w3.org/2000/svg">
<path d="M5.26457 42.3933L5.2647 42.3934L6.5956 42.7505L6.83042 46.7089C6.83042 46.7089 6.83043 46.709 6.83043 46.709C6.92438 48.4086 7.03778 49.7447 7.24256 50.7981C7.44735 51.8517 7.7452 52.6321 8.21455 53.2138C8.68551 53.7975 9.32129 54.1716 10.1827 54.4275C11.0416 54.6826 12.1309 54.822 13.5149 54.933C18.4408 55.3435 42.3229 55.2066 48.5777 54.7623C50.6089 54.6258 52.1629 54.5017 53.358 54.274C54.5534 54.0463 55.4033 53.7128 56.017 53.1477C56.6316 52.5817 56.9968 51.7949 57.2477 50.688C57.4983 49.5825 57.6375 48.1449 57.7911 46.2675L57.7911 46.2671C57.9963 43.6332 58.2013 37.1058 58.2355 31.7421V31.7419C58.2525 27.4558 58.244 24.9847 58.167 23.4698C58.0901 21.9567 57.9445 21.3816 57.6768 20.8994C57.3404 20.2627 56.7172 19.704 55.9843 19.305C55.2502 18.9054 54.397 18.6609 53.5922 18.6609C53.3508 18.6609 53.1663 18.6399 52.9716 18.5418C52.7741 18.4423 52.557 18.2588 52.2635 17.9146C51.6751 17.2246 50.8084 15.9249 49.2009 13.4796C48.2265 11.9751 47.2773 10.6155 46.5115 9.59723C46.1286 9.08812 45.7908 8.66343 45.5181 8.34828C45.3819 8.19077 45.261 8.05969 45.1584 7.95878C45.0575 7.85952 44.9687 7.78393 44.897 7.74297L44.8946 7.74158L44.8946 7.74162C44.1421 7.33916 43.3693 7.18967 42.5062 7.31234C41.6464 7.43454 40.7025 7.82604 39.6038 8.49546C39.6036 8.49561 39.6033 8.49576 39.6031 8.49591L37.6039 9.66212L33.3836 7.36633L5.26457 42.3933ZM5.26457 42.3933C2.1533 41.5544 0.578099 38.241 0.955114 33.5102C1.05852 32.0975 1.41241 30.9678 2.04562 30.0944C2.67963 29.2199 3.58732 28.6112 4.78197 28.2303C4.78198 28.2303 4.78199 28.2303 4.782 28.2303L6.31788 27.7401V25.422C6.31788 23.3676 6.55703 21.8455 7.11005 20.7525C7.66653 19.6527 8.5367 18.9953 9.77368 18.6643C9.97886 18.6091 10.2854 18.4506 10.7157 18.1642C11.1434 17.8794 11.6852 17.4737 12.3588 16.9322C13.7058 15.8495 15.5743 14.2285 18.1017 11.9572M5.26457 42.3933L18.1017 11.9572M18.1017 11.9572C20.0494 10.1804 21.9289 8.52302 23.3859 7.28392C24.1144 6.66441 24.7378 6.14899 25.2115 5.77536C25.4483 5.5886 25.6484 5.43668 25.806 5.32469C25.9582 5.21656 26.0789 5.13952 26.156 5.10794C26.505 4.94243 26.8417 4.83785 27.2249 4.81783C27.6082 4.7978 28.0315 4.86269 28.5535 5.02728C29.5935 5.35527 31.0455 6.08633 33.3834 7.3662L18.1017 11.9572ZM46.3355 14.4781L46.3349 14.4772C45.6015 13.3515 44.8683 12.3029 44.2848 11.5234C43.993 11.1336 43.7393 10.8121 43.5423 10.5823C43.4436 10.4672 43.3603 10.3765 43.2941 10.312C43.261 10.2797 43.2333 10.2551 43.2111 10.2377C43.2 10.229 43.191 10.2227 43.1839 10.2183C43.1807 10.2163 43.178 10.2148 43.1761 10.2138C43.1724 10.2136 43.1605 10.2132 43.1362 10.2171C43.1043 10.2222 43.061 10.2331 43.0055 10.2509C42.8948 10.2864 42.7454 10.3461 42.5586 10.4301C42.1856 10.5978 41.6725 10.858 41.0393 11.2013C39.7733 11.8876 38.0329 12.9028 35.9842 14.1661L35.9842 14.1661L29.5115 18.1544L39.0761 18.3193L39.0763 18.3193C41.7919 18.3705 44.2683 18.4132 46.0743 18.4388C46.9773 18.4516 47.7125 18.4602 48.2261 18.4634C48.4829 18.465 48.684 18.4652 48.8227 18.464C48.849 18.4638 48.8729 18.4635 48.8944 18.4632C48.8652 18.4112 48.8262 18.3445 48.778 18.2641C48.6511 18.0522 48.4627 17.7488 48.2259 17.3754C47.7524 16.629 47.0867 15.6048 46.3355 14.4781ZM19.5717 18.251L19.5693 18.3509L19.5718 18.251L23.7093 18.3527L28.9444 15.0892C30.3959 14.1842 31.7448 13.3305 32.7478 12.686C33.2494 12.3637 33.6641 12.094 33.9619 11.8963C34.1109 11.7975 34.2301 11.7169 34.3162 11.6571C34.3592 11.6271 34.3935 11.6026 34.4187 11.5838C34.4242 11.5797 34.4292 11.576 34.4337 11.5725C34.4123 11.539 34.3684 11.49 34.2971 11.4257C34.1548 11.2972 33.9259 11.1275 33.626 10.9276C33.0276 10.5286 32.1595 10.0179 31.1706 9.48933C30.1806 8.96019 29.2589 8.4823 28.5764 8.13678C28.2351 7.964 27.954 7.82449 27.7541 7.72829C27.6541 7.68013 27.5751 7.64314 27.5193 7.61832C27.5085 7.61353 27.4988 7.60925 27.49 7.60548C27.4824 7.60221 27.4756 7.59932 27.4695 7.59681C27.4687 7.59732 27.468 7.59784 27.4672 7.59838C27.4429 7.61515 27.4082 7.6412 27.3628 7.67684C27.2723 7.74783 27.144 7.85317 26.9817 7.9896C26.6574 8.26226 26.2 8.65675 25.6429 9.14339C24.529 10.1165 23.0178 11.4569 21.3785 12.9255C21.3784 12.9256 21.3783 12.9256 21.3782 12.9257L15.6198 18.1546L19.5717 18.251ZM55.2685 32.1852L55.2685 32.1848C55.3027 27.8282 55.3026 25.4064 55.2302 24.0095C55.1574 22.6048 55.011 22.2681 54.7854 22.0426C54.6713 21.9284 54.492 21.8261 53.9662 21.7429C53.4404 21.6597 52.5856 21.5978 51.1381 21.5509C48.2448 21.457 43.0031 21.4228 33.3353 21.3887C27.5796 21.3716 22.2082 21.3716 18.1948 21.3887C16.1881 21.3972 14.521 21.41 13.3153 21.4271C12.7123 21.4356 12.2251 21.4452 11.8685 21.4559C11.5082 21.4666 11.2891 21.4783 11.2158 21.4899L11.2158 21.49L11.2121 21.4904C10.3679 21.5917 9.89873 21.7985 9.62343 22.3216C9.48213 22.5901 9.38806 22.9488 9.33 23.435C9.272 23.9205 9.25064 24.5264 9.25064 25.2853V27.8192L12.8766 27.9523C12.8768 27.9523 12.877 27.9523 12.8772 27.9523C14.8894 28.0035 16.111 28.1055 17.018 28.4587C17.933 28.815 18.5191 29.4231 19.2733 30.4514C19.9114 31.2675 20.0112 32.0574 20.1133 35.0858L20.1134 35.0867C20.1646 37.187 20.0888 38.578 19.7453 39.6085C19.3988 40.6479 18.7828 41.3131 17.7799 41.9703C17.2596 42.3171 16.8537 42.5205 16.1785 42.6345C15.5112 42.7472 14.5802 42.7726 13.0107 42.7726H9.56334L9.76283 46.6628C9.76284 46.663 9.76286 46.6632 9.76287 46.6634C9.86537 48.252 9.95904 49.2882 10.086 49.9905C10.2128 50.6925 10.3705 51.0452 10.5895 51.2802C10.6301 51.3219 10.7203 51.3733 10.876 51.428C11.0284 51.4815 11.2307 51.534 11.4812 51.5849C11.9819 51.6867 12.6657 51.7803 13.5079 51.8645C15.1918 52.0328 17.5004 52.1629 20.2257 52.2483C25.676 52.419 32.7875 52.4105 39.8908 52.1715C46.2632 51.9494 49.7347 51.8043 51.6733 51.604C52.6438 51.5038 53.2206 51.3905 53.5824 51.251C53.7619 51.1818 53.8854 51.1073 53.9769 51.0272C54.0681 50.9474 54.1317 50.8586 54.1874 50.7551L54.1876 50.7546C54.2571 50.6274 54.3289 50.3995 54.3997 50.0685C54.47 49.7404 54.5375 49.3196 54.6016 48.813C54.7299 47.7999 54.8439 46.4488 54.9399 44.8187C55.1319 41.5589 55.2515 37.1884 55.2685 32.1852ZM16.4258 31.643L16.4258 31.643L16.4228 31.6399C16.2262 31.4348 16.0768 31.2885 15.8864 31.1779C15.6973 31.0679 15.461 30.9896 15.0885 30.9352C14.3376 30.8255 13.0662 30.8167 10.5853 30.8167C8.9532 30.8167 7.72096 30.8232 6.78857 30.8906C5.85364 30.9583 5.23584 31.0866 4.82324 31.3204C4.41984 31.5489 4.20388 31.8835 4.08739 32.3961C3.9692 32.9163 3.95591 33.6088 3.95591 34.5426C3.95591 35.8163 3.98396 36.7801 4.13116 37.5135C4.27762 38.2432 4.53965 38.7323 4.99956 39.0692C5.46443 39.4097 6.14495 39.6049 7.15228 39.7128C8.1581 39.8205 9.47439 39.8398 11.2002 39.8398C12.7306 39.8398 13.8744 39.8397 14.7325 39.7707C15.5932 39.7015 16.1466 39.5639 16.5092 39.3035C16.865 39.0479 17.0526 38.6621 17.1493 38.0507C17.2465 37.4358 17.2489 36.6124 17.2489 35.499C17.2489 34.0773 17.2313 33.2955 17.1188 32.7746C17.0633 32.5176 16.9852 32.3273 16.8757 32.1569C16.7653 31.985 16.6207 31.8293 16.4258 31.643Z"
fill="rgb(30,89,69)" stroke="rgb(30,89,69)" stroke-width="0.2"/>
<circle cx="46.7143" cy="40.9143" r="12.7857" fill="rgb(30,89,69)" stroke="rgb(30,89,69)" stroke-width="3"/>
<circle cx="13.4285" cy="35.3428" r="2.14286" fill="rgb(30,89,69)"/>
<path d="M42.0871 39.5706L42.088 39.5706L45.3174 39.4966V36.3734C45.3174 35.2309 45.3439 34.3474 45.3979 33.7202C45.4248 33.4072 45.4591 33.1512 45.5023 32.9559C45.5239 32.8583 45.5489 32.7703 45.5789 32.6953C45.6074 32.6238 45.6476 32.5456 45.7088 32.4843C45.8289 32.3642 45.9837 32.2684 46.1392 32.2023C46.2939 32.1365 46.4668 32.0929 46.6281 32.0929C46.8763 32.0929 47.1208 32.1321 47.3262 32.2894C47.5305 32.446 47.6553 32.688 47.7382 33.0016C47.9008 33.6165 47.9387 34.661 47.9387 36.3734V39.4966L51.1681 39.5706L51.169 39.5706C52.663 39.6103 53.5602 39.6501 54.1174 39.7287C54.6773 39.8077 54.9638 39.9342 55.1577 40.2055L55.1626 40.2125L55.1671 40.2198C55.2874 40.4153 55.3633 40.6134 55.3633 40.8248C55.3633 41.0381 55.2862 41.2317 55.1622 41.4176L54.9711 41.2901L55.1622 41.4176C55.0726 41.552 54.9564 41.6624 54.7807 41.7475C54.6138 41.8284 54.4009 41.8827 54.1224 41.924C53.5675 42.0062 52.6758 42.046 51.1956 42.0857L51.1946 42.0857L47.9597 42.1598L47.8856 45.3947L47.8856 45.3956C47.8459 46.8764 47.8061 47.767 47.7274 48.321C47.6484 48.8778 47.5218 49.1641 47.2507 49.3577L47.2437 49.3627L47.2364 49.3672C47.0409 49.4875 46.8428 49.5634 46.6314 49.5634C46.4181 49.5634 46.2245 49.4862 46.0386 49.3623C45.9042 49.2727 45.7938 49.1564 45.7087 48.9807C45.6278 48.8138 45.5735 48.6009 45.5322 48.3225C45.45 47.7675 45.4102 46.8759 45.3705 45.3956L45.3705 45.3947L45.2964 42.1598L42.0615 42.0857L42.0606 42.0857C40.5803 42.046 39.6887 42.0062 39.1337 41.924C38.8553 41.8827 38.6424 41.8284 38.4755 41.7475C38.2998 41.6624 38.1835 41.552 38.0939 41.4176L38.3019 41.2789L38.0939 41.4176C37.97 41.2317 37.8928 41.0381 37.8928 40.8248C37.8928 40.6134 37.9687 40.4153 38.089 40.2198L38.0935 40.2125L38.0985 40.2055C38.2923 39.9342 38.5789 39.8077 39.1387 39.7287C39.696 39.6501 40.5932 39.6103 42.0871 39.5706Z"
fill="rgb(30,89,69)" stroke="rgb(30,89,69)" stroke-width="0.5"/>
</svg>
