<svg width="60" height="51" viewBox="0 0 60 51" fill="none" xmlns="http://www.w3.org/2000/svg">
<path d="M25.1963 0.285198C24.6839 0.490156 21.063 3.56452 17.1688 7.11711C12.1132 11.6603 9.68782 13.6074 8.79967 13.8465C6.37434 14.4956 5.41788 16.4085 5.41788 20.5077V22.8988L3.81238 23.4112C1.45537 24.1627 0.259781 25.8024 0.0548231 28.6035C-0.320932 33.3175 1.25041 36.5627 4.29061 37.3825L5.69115 37.7582L5.93027 41.7891C6.30602 48.5868 6.98922 49.475 12.5231 49.919C16.5257 50.2526 33.0815 50.2243 42.4789 49.9629C44.6302 49.903 46.4063 49.831 47.5708 49.7483C48.4322 49.6903 49.2066 49.6347 49.9034 49.5726C54.3056 49.1804 55.6128 48.5297 56.2225 45.4076C56.4272 44.3597 56.5532 43.0334 56.6914 41.345C56.8853 38.8559 57.0793 32.6795 57.1285 27.5002C57.1313 27.2064 57.1336 27.1151 57.1355 26.8272C57.1696 18.2531 57.1013 16.9551 56.5889 16.0328C55.9399 14.803 54.1636 13.8465 52.5922 13.8465C51.6016 13.8465 51.3283 13.505 48.1173 8.62013C46.1702 5.61409 44.3256 3.18876 43.8474 2.91548C42.3785 2.12981 40.8413 2.33477 38.6551 3.667L36.6056 4.86258L32.3356 2.53973C27.6558 -0.0222378 26.5627 -0.363833 25.1963 0.285198ZM30.2177 4.48682C32.199 5.54577 33.702 6.5364 33.5312 6.7072C33.3946 6.84384 30.9009 8.44934 27.9974 10.2598L22.7368 13.5391L14.3677 13.3342L20.3114 7.93694C23.5908 4.99922 26.3577 2.57389 26.4602 2.57389C26.5285 2.57389 28.2365 3.42788 30.2177 4.48682ZM45.4187 9.50828C46.9218 11.7628 48.0832 13.6074 48.049 13.6416C47.9807 13.6757 43.5058 13.6074 38.0744 13.505L28.1681 13.3342L34.9317 9.16669C39.0309 6.63888 41.9003 5.1017 42.2077 5.20418C42.481 5.30665 43.9499 7.25375 45.4187 9.50828ZM53.8561 17.0575C54.3102 17.5116 54.398 18.1986 54.3685 24.4429C54.3391 30.6871 54.3763 26.2795 54.3685 27.2713C54.367 27.7205 55.2032 29.7614 55.2 30.2002C56.2 32.2002 56.6621 33.8195 56.7 35.2002C56.7771 38.0053 56.1355 39.4629 55.1355 41.4629C54.3855 42.9629 53.4429 45.5812 53.2754 45.8882C52.8683 46.6443 53.3188 47.037 45.2 47.3571C43.7813 47.413 40.7896 47.291 38.8943 47.3571C38.3206 47.3764 36.9 47.3571 36.9 47.3571C23.2816 47.7452 10.4021 47.3526 9.51702 46.4348C9.03879 45.9224 8.86799 44.9318 8.66303 41.7549L8.45808 37.7582H12.0107C15.1534 37.7582 15.6999 37.6558 16.7247 36.9726C18.7059 35.6745 19.1159 34.3764 19.0134 30.1748C18.9109 27.1346 18.8084 26.3831 18.1936 25.5974C16.6905 23.5479 15.9049 23.2404 11.874 23.1379L8.15064 23.0013V20.371C8.15064 17.3308 8.49224 16.6818 10.2002 16.4768C10.8492 16.3744 20.8238 16.3402 32.3356 16.3744C51.6699 16.4427 53.3096 16.511 53.8561 17.0575ZM15.4949 26.6564C16.2806 27.4079 16.3489 27.7495 16.3489 30.5847C16.3489 35.0255 16.3148 35.0255 10.2002 35.0255C3.29998 35.0255 2.85591 34.718 2.85591 29.6283C2.85591 25.9049 3.06087 25.8024 9.58534 25.8024C14.5385 25.8024 14.7093 25.8366 15.4949 26.6564Z" fill="rgb(189,236,182)"/>
<path d="M54.3685 27.2713C54.3763 26.2795 54.3391 30.6871 54.3685 24.4429C54.3685 24.4429 52.6261 23.2491 51.4355 22.764C50.168 22.2476 49.4054 21.9516 48.0528 21.7429C46.1962 21.4564 45.1002 21.3838 43.2425 21.6629C41.4631 21.9302 40.427 22.2344 38.8297 23.0629C37.0542 23.9838 35.9662 24.8996 34.6355 26.3929C33.412 27.7657 32.9751 28.6487 32.2711 30.3474C31.3078 32.6716 30.8913 34.2313 31.1355 36.7352C31.2747 38.1632 31.4155 38.9629 31.9155 40.31C32.2812 41.2953 32.6778 42.272 33.3355 43.3481C33.9525 44.3577 34.3041 44.8091 35.1355 45.6509C35.7564 46.2796 36.9 47.3571 36.9 47.3571C36.9 47.3571 38.3206 47.3764 38.8943 47.3571C40.7896 47.291 43.7813 47.413 45.2 47.3571C45.2 47.3571 44.7308 47.0618 44.1654 46.9629C43.2136 46.7964 41.8061 46.5141 41.1055 46.1974C39.8738 45.6408 39.1519 45.2275 38.1255 44.3481C37.5028 43.8147 37.1473 43.4886 36.6355 42.8481C35.798 41.8001 35.4355 41.1224 34.8672 39.8481C34.4318 38.8718 34.4279 38.2101 34.3355 37.1452C34.2242 35.8624 34.2249 35.1184 34.4355 33.8481C34.6374 32.6298 34.8858 31.954 35.4355 30.8481C35.9558 29.8012 36.3653 29.268 37.1093 28.3662L37.114 28.3605C37.7256 27.6191 38.0779 27.1921 38.8297 26.5899C39.9707 25.6759 40.7499 25.3553 42.1432 24.9129C43.3527 24.5288 44.0853 24.4629 45.3542 24.4429C46.7661 24.4206 47.5933 24.5737 48.9355 25.0129C50.1924 25.4242 50.1355 25.4629 51.9355 26.5129C51.9355 26.5129 52.773 27.1318 53.2355 27.5629C53.6979 27.994 55.2 30.2002 55.2 30.2002C55.2032 29.7614 54.367 27.7205 54.3685 27.2713Z" fill="rgb(189,236,182)"/>
<path d="M57.1285 27.5002C57.0793 32.6795 56.8853 38.8559 56.6914 41.345C56.5532 43.0334 56.4272 44.3597 56.2225 45.4076C56.2225 45.4076 56.7846 44.4578 57.1355 43.9629C57.8639 42.9353 58.201 42.2862 58.6455 41.1077C58.8824 40.4795 59.0549 40.1095 59.2355 39.4629C59.452 38.6875 59.5386 38.2621 59.6355 37.4629C59.7294 36.6875 59.7355 36.2439 59.7355 35.4629C59.7355 34.8771 59.6828 34.5467 59.6355 33.9629C59.5206 32.546 59.2854 31.7607 58.7055 30.4629C58.5273 30.0642 57.9054 28.7206 57.9054 28.7206L57.1285 27.5002Z" fill="rgb(189,236,182)"/>
<path d="M47.5708 49.7483C46.4063 49.831 44.6302 49.903 42.4789 49.9629C42.4789 49.9629 43.1523 49.912 43.6355 49.9629C44.218 50.0242 44.5497 50.0629 45.1355 50.0629C45.9165 50.0629 46.3591 50.0482 47.1355 49.9629C47.621 49.9095 47.9001 49.846 48.3569 49.7421L48.4296 49.7255C48.9864 49.599 49.9034 49.5726 49.9034 49.5726C49.2066 49.6347 48.4322 49.6903 47.5708 49.7483Z" fill="rgb(189,236,182)"/>
<path d="M45.2 47.3571C53.3188 47.037 52.8683 46.6443 53.2754 45.8882C53.4429 45.5812 54.3855 42.9629 55.1355 41.4629C54.6355 42.4629 53.07 44.0858 52.6355 44.4429C52.0915 44.8898 51.742 45.1054 51.1355 45.4629C50.3831 45.9062 49.9589 46.0722 49.1355 46.3629C48.1966 46.6942 46.6355 46.9629 46.6355 46.9629H44.1654C44.7308 47.0618 45.2 47.3571 45.2 47.3571Z" fill="rgb(189,236,182)"/>
<path d="M13.2857 30.1429C13.2857 31.3263 12.3263 32.2857 11.1429 32.2857C9.95939 32.2857 9 31.3263 9 30.1429C9 28.9594 9.95939 28 11.1429 28C12.3263 28 13.2857 28.9594 13.2857 30.1429Z" fill="rgb(189,236,182)"/>
<path d="M44.7428 28.3182C44.5307 28.5303 44.4246 29.7501 44.4246 32.0305V35.3981L40.9509 35.4776C37.9546 35.5572 37.4243 35.6367 37.1591 36.008C36.947 36.3527 36.947 36.6178 37.1591 36.936C37.4243 37.3338 37.9546 37.4133 40.9244 37.4929L44.3981 37.5724L44.4776 41.0461C44.5572 44.0159 44.6367 44.5462 45.0345 44.8114C45.3527 45.0235 45.6178 45.0235 45.9625 44.8114C46.3338 44.5462 46.4133 44.0159 46.4929 41.0461L46.5724 37.5724L50.0461 37.4929C53.0159 37.4133 53.5462 37.3338 53.8114 36.936C54.0235 36.6178 54.0235 36.3527 53.8114 36.008C53.5462 35.6367 53.0159 35.5572 50.0196 35.4776L46.5459 35.3981V32.0305C46.5459 28.5834 46.3868 28 45.4853 28C45.2466 28 44.9284 28.1326 44.7428 28.3182Z" fill="rgb(189,236,182)"/>
<path fill-rule="evenodd" clip-rule="evenodd" d="M50.0196 35.4776L46.5459 35.3981V32.0305C46.5459 28.5834 46.3868 28 45.4853 28C45.2466 28 44.9284 28.1326 44.7428 28.3182C44.5307 28.5303 44.4246 29.7501 44.4246 32.0305V35.3981L40.9509 35.4776C37.9546 35.5572 37.4243 35.6367 37.1591 36.008C36.947 36.3527 36.947 36.6178 37.1591 36.936C37.4243 37.3338 37.9546 37.4133 40.9244 37.4929L44.3981 37.5724L44.4776 41.0461C44.5572 44.0159 44.6367 44.5462 45.0345 44.8114C45.3527 45.0235 45.6178 45.0235 45.9625 44.8114C46.3338 44.5462 46.4133 44.0159 46.4929 41.0461L46.5724 37.5724L50.0461 37.4929C53.0159 37.4133 53.5462 37.3338 53.8114 36.936C54.0235 36.6178 54.0235 36.3527 53.8114 36.008C53.5462 35.6367 53.0159 35.5572 50.0196 35.4776ZM47.0614 38.0614L50.0595 37.9927C51.5351 37.9532 52.4433 37.9133 53.0163 37.8284C53.3046 37.7857 53.5465 37.7267 53.7468 37.6296C53.9648 37.524 54.1145 37.3828 54.2274 37.2134C54.3692 37.0007 54.4705 36.7593 54.4705 36.4819C54.4705 36.2083 54.3717 35.9645 54.2372 35.7459L54.2282 35.7313L54.2183 35.7173C53.9632 35.3603 53.589 35.2201 53.0095 35.1383C52.4353 35.0573 51.5226 35.0174 50.0328 34.9778L50.031 34.9778L47.0459 34.9094V32.0305C47.0459 30.3293 47.0097 29.248 46.8371 28.5948C46.7475 28.2561 46.6024 27.9526 46.3354 27.7481C46.0664 27.542 45.7563 27.5 45.4853 27.5C45.282 27.5 45.0755 27.5541 44.8986 27.6293C44.7202 27.7051 44.5366 27.8173 44.3892 27.9646C44.2932 28.0607 44.2377 28.175 44.2039 28.2597C44.1672 28.3516 44.1387 28.4538 44.1154 28.5591C44.0688 28.7698 44.0333 29.0382 44.006 29.3559C43.9511 29.9938 43.9246 30.8857 43.9246 32.0305V34.9094L40.9377 34.9778C39.4479 35.0174 38.5352 35.0573 37.961 35.1383C37.3815 35.2201 37.0073 35.3603 36.7522 35.7173L36.7423 35.7313L36.7333 35.7459C36.5987 35.9645 36.5 36.2083 36.5 36.4819C36.5 36.7593 36.6013 37.0007 36.7431 37.2134C36.856 37.3828 37.0057 37.524 37.2237 37.6296C37.424 37.7267 37.6659 37.7857 37.9542 37.8284C38.5272 37.9133 39.4354 37.9532 40.911 37.9927L40.913 37.9927L43.9091 38.0614L43.9778 41.0595C44.0173 42.5351 44.0572 43.4433 44.1421 44.0163C44.1848 44.3046 44.2438 44.5465 44.3409 44.7468C44.4465 44.9648 44.5877 45.1145 44.7571 45.2274C44.9698 45.3692 45.2112 45.4705 45.4886 45.4705C45.7622 45.4705 46.006 45.3718 46.2246 45.2372L46.2392 45.2282L46.2532 45.2183C46.6098 44.9635 46.7503 44.5899 46.8321 44.0133C46.9132 43.4422 46.9531 42.536 46.9927 41.0595L46.9927 41.0575L47.0614 38.0614Z" fill="rgb(189,236,182)"/>
</svg>
