<svg width="62" height="62" viewBox="0 0 62 62" fill="none" xmlns="http://www.w3.org/2000/svg">
<path d="M14.4245 21.1399L14.4246 21.1398C15.2437 23.23 15.7328 24.0642 17.1443 25.8145C17.4926 26.2465 17.6769 26.5242 17.7494 26.6943C17.7519 26.7001 17.7542 26.7057 17.7562 26.7109C17.3596 26.834 16.3707 27.1827 15.3826 27.5442C11.4604 28.9173 7.26644 31.2753 5.21825 33.2949L14.4245 21.1399ZM14.4245 21.1399L14.4228 21.1352M14.4245 21.1399L14.4228 21.1352M14.4228 21.1352C14.1138 20.3065 13.9242 19.7123 13.8151 18.9674C13.7072 18.2297 13.6797 17.3533 13.6797 15.9611C13.6797 14.5962 13.7072 13.707 13.8114 12.9635C13.9167 12.2122 14.0989 11.618 14.3957 10.8405C16.2669 5.93584 19.9605 2.52298 24.931 1.18779C28.6576 0.163956 33.3364 0.78775 36.6369 2.72257L36.6373 2.72278C44.7052 7.46696 46.6152 18.7712 40.5263 25.6852L40.5251 25.6865L39.6833 26.6309L41.1191 27.1238C42.1923 27.463 44.1225 28.2187 45.4371 28.8061L45.4398 28.8073C46.1011 29.1104 46.7619 29.3788 47.2933 29.5708C47.5593 29.6669 47.7899 29.7428 47.9704 29.7942C48.0607 29.82 48.1357 29.8388 48.1946 29.8509C48.2239 29.857 48.2475 29.861 48.2657 29.8635C48.2685 29.8639 48.2711 29.8642 48.2735 29.8645C48.2789 29.8651 48.2834 29.8656 48.287 29.8659L48.293 29.8662C48.2944 29.8663 48.2951 29.8663 48.2951 29.8663C48.557 29.8663 48.9482 29.9509 49.3832 30.0744C49.8287 30.2009 50.3522 30.3779 50.8937 30.5819C51.9741 30.9888 53.147 31.5108 53.9331 31.9681L53.9348 31.9692C54.8869 32.5318 55.9879 33.4793 56.9766 34.5207C57.9656 35.5626 58.8621 36.7193 59.3945 37.712L59.3963 37.7156C60.1529 39.1728 60.6385 40.3038 60.9322 41.4823C61.226 42.6613 61.3241 43.8724 61.3241 45.4857C61.3241 48.9949 60.668 51.2242 58.881 54.0039L58.881 54.004C55.2488 59.6508 48.9693 62.2935 42.4139 60.9597C41.3873 60.7517 40.7476 60.6518 40.062 60.6384C39.3727 60.625 38.6268 60.6987 37.3865 60.852C35.5554 61.0913 32.26 61.2164 28.9654 61.2234C25.6702 61.2304 22.3462 61.1192 20.4596 60.8798L20.4595 60.8798M14.4228 21.1352L20.4595 60.8798M20.4595 60.8798C17.3803 60.4879 13.6839 59.733 10.4676 58.8949C8.8591 58.4758 7.36719 58.0349 6.13008 57.6069C4.90044 57.1814 3.90226 56.762 3.29345 56.3809C2.59188 55.9532 1.91807 55.1514 1.45504 54.197C1.10008 53.487 0.902243 53.0467 0.802774 52.1442C0.706493 51.2705 0.7 49.9475 0.7 47.4633C0.7 43.6009 0.922032 40.9432 1.60196 38.8073M20.4595 60.8798L1.60196 38.8073M1.60196 38.8073C2.28619 36.6579 3.42699 35.058 5.21805 33.2951L1.60196 38.8073ZM20.1811 24.7464L20.1813 24.7465C23.1523 27.7448 26.6762 28.9061 30.5573 28.2551C40.8313 26.4837 44.866 14.4593 37.6652 7.17603C35.9746 5.48556 34.2105 4.45503 31.9801 3.85641C25.3451 2.14409 18.4902 6.16941 16.7491 12.833C15.635 17.2091 16.7976 21.3356 20.1811 24.7464ZM35.6442 58.2873C35.7082 58.2834 35.7669 58.2795 35.8203 58.2756C35.7712 58.2078 35.7118 58.1304 35.6423 58.0443C35.3621 57.6966 34.9453 57.2383 34.463 56.7559C31.2582 53.5793 29.8068 50.0764 29.8068 45.4857C29.8068 40.9234 31.2577 37.3928 34.4069 34.2436C35.2952 33.3553 36.7185 32.3377 38.0632 31.5443C38.7373 31.1465 39.399 30.8007 39.972 30.5533C40.531 30.3119 41.0481 30.1448 41.4153 30.1448C41.4581 30.1448 41.4964 30.141 41.5298 30.1349C41.5165 30.1316 41.5027 30.1281 41.4885 30.1244C41.3493 30.0889 41.1599 30.0377 40.9342 29.9748C40.4833 29.8489 39.8834 29.6745 39.2418 29.4793L36.989 28.8432L35.4217 29.6269C33.5449 30.5653 30.5746 31.3019 28.547 31.3019C27.8136 31.3019 26.2255 31.0441 25.0188 30.7355C23.8109 30.4265 22.2759 29.8613 21.6269 29.4781C21.6266 29.4779 21.6263 29.4777 21.626 29.4776L20.597 28.8752L18.3538 29.5349L18.352 29.5355C16.0523 30.1964 13.4063 31.3494 11.1307 32.6083C9.99357 33.2374 8.95342 33.8904 8.09824 34.5182C7.2391 35.149 6.5821 35.7433 6.19717 36.2522L6.19577 36.254C5.05907 37.7331 4.37946 39.0031 3.99444 40.7121C3.60622 42.4352 3.51432 44.6177 3.58392 47.9305L3.58394 47.9319L3.66537 52.9265L4.43056 53.6177C4.4308 53.6179 4.43104 53.6181 4.43129 53.6183C4.77241 53.9219 5.45322 54.2853 6.42688 54.6775C7.39056 55.0658 8.60887 55.4699 9.99531 55.865C12.7675 56.6551 16.1946 57.4044 19.5668 57.9179C22.0239 58.2768 24.5415 58.416 29.4662 58.416C31.2739 58.416 32.9419 58.3882 34.171 58.35C34.7859 58.3309 35.2891 58.3093 35.6442 58.2873ZM41.6391 30.1008C41.6426 30.099 41.646 30.0973 41.6491 30.0955C41.665 30.0867 41.6709 30.0808 41.6709 30.0809C41.671 30.0809 41.6703 30.0816 41.6691 30.0831C41.666 30.0871 41.6576 30.0992 41.6515 30.1188C41.6579 30.1267 41.667 30.1361 41.6793 30.1456C41.6892 30.1532 41.7005 30.1602 41.7128 30.1663C41.7393 30.1793 41.7708 30.1878 41.8052 30.1878C41.77 30.1878 41.7363 30.1816 41.7248 30.1795C41.7059 30.1761 41.6844 30.1716 41.6619 30.1666C41.6614 30.1665 41.6609 30.1664 41.6604 30.1663C41.6553 30.1651 41.65 30.1639 41.6445 30.1627C41.6445 30.1639 41.6445 30.1651 41.6445 30.1663L41.6391 30.1008ZM58.2269 48.5578L58.227 48.5573C59.9934 41.7904 55.6714 34.6509 48.6932 32.8242C39.3611 30.4028 30.4827 39.2811 32.9039 48.6132C34.5931 55.0974 40.9685 59.3701 47.4968 58.3639C52.6694 57.5469 56.8917 53.7076 58.2269 48.5578Z" fill="#28804C" stroke="#28804C" stroke-width="0.6"/>
<path d="M40.7945 44.1273L40.7956 44.1273L44.1513 44.0505V40.8063C44.1513 39.6058 44.1791 38.6766 44.236 38.0161C44.2643 37.6867 44.3005 37.4159 44.3464 37.2085C44.3693 37.1048 44.3961 37.0102 44.4286 36.9289C44.4593 36.8519 44.5038 36.7643 44.5734 36.6947L44.7855 36.9068L44.5734 36.6947C44.7036 36.5645 44.8705 36.4613 45.0373 36.3905C45.2031 36.32 45.3897 36.2726 45.5654 36.2726C45.8296 36.2726 46.0962 36.3142 46.3215 36.4868C46.5455 36.6584 46.6796 36.9218 46.7677 37.2549C46.94 37.9066 46.9796 39.0092 46.9796 40.8063V44.0505L50.3352 44.1273L50.3363 44.1273C51.905 44.169 52.8497 44.2109 53.4376 44.2938C54.0286 44.3772 54.3428 44.5121 54.5555 44.8099L54.5615 44.8183L54.5669 44.8271C54.6954 45.0359 54.7785 45.2508 54.7785 45.4822C54.7785 45.7158 54.6938 45.9263 54.561 46.1256C54.4634 46.272 54.3363 46.3926 54.1454 46.4851C53.9651 46.5724 53.7371 46.6302 53.4432 46.6737C52.8575 46.7605 51.9184 46.8024 50.3642 46.844L50.3631 46.844L47.0008 46.921L46.9238 50.2833L46.9238 50.2845C46.8821 51.8392 46.8402 52.7771 46.7572 53.3616C46.6738 53.9494 46.5387 54.2632 46.2412 54.4758L46.2328 54.4817L46.224 54.4871C46.0152 54.6156 45.8003 54.6988 45.5689 54.6988C45.3353 54.6988 45.1248 54.6141 44.9255 54.4813C44.7791 54.3836 44.6585 54.2565 44.566 54.0656C44.4787 53.8853 44.4209 53.6573 44.3774 53.3634C44.2906 52.7778 44.2487 51.8387 44.2071 50.2845L44.2071 50.2833L44.1301 46.921L40.7678 46.844L40.7666 46.844C39.2124 46.8024 38.2733 46.7605 37.6877 46.6737C37.3938 46.6302 37.1658 46.5724 36.9855 46.4851C36.7946 46.3926 36.6675 46.272 36.5698 46.1256C36.437 45.9263 36.3523 45.7158 36.3523 45.4822C36.3523 45.2508 36.4355 45.0359 36.564 44.8271L36.5694 44.8183L36.5753 44.8099C36.7881 44.5121 37.1022 44.3772 37.6932 44.2938C38.2811 44.2109 39.2259 44.169 40.7945 44.1273Z" fill="#28804C" stroke="#28804C" stroke-width="0.6"/>
</svg>


