<svg width="62" height="62" viewBox="0 0 62 62" fill="none" xmlns="http://www.w3.org/2000/svg">
<path d="M25.0096 1.47755C20.1353 2.78666 16.5143 6.12906 14.676 10.9477C14.0911 12.4796 13.9797 13.2317 13.9797 15.9613C13.9797 18.7467 14.0911 19.3873 14.7039 21.0306C15.5116 23.0918 15.9851 23.8995 17.3778 25.6264C18.0741 26.4899 18.2134 26.852 17.9627 26.9634C17.7399 27.0191 16.6258 27.4091 15.4838 27.8269C11.5843 29.1917 7.43413 31.5314 5.42868 33.509C1.8913 36.9906 0.999994 39.7481 0.999994 47.4635C0.999994 52.4493 1.02785 52.6721 1.72418 54.0648C2.16984 54.9839 2.81046 55.736 3.45109 56.1259C5.76292 57.5743 14.3696 59.8026 20.4974 60.5825C24.2297 61.056 33.7277 61.0281 37.3487 60.5546C39.8276 60.2482 40.4126 60.2482 42.4737 60.666C48.9078 61.9751 55.0634 59.3848 58.6287 53.8419C60.3834 51.1123 61.0241 48.9397 61.0241 45.4859C61.0241 42.2828 60.6341 40.7508 59.13 37.8541C58.0995 35.9322 55.6205 33.314 53.7822 32.2277C52.2502 31.3364 49.1585 30.1665 48.2951 30.1665C47.9887 30.1665 46.6517 29.693 45.3147 29.0803C44.0056 28.4953 42.0838 27.7433 41.0253 27.4091L39.1591 26.7684L40.3011 25.4872C46.2618 18.7188 44.3956 7.63315 36.4852 2.98163C33.2542 1.0876 28.6584 0.474824 25.0096 1.47755ZM32.0565 3.56655C34.3405 4.17933 36.151 5.23776 37.8779 6.96466C45.259 14.4294 41.1089 26.7406 30.6082 28.5511C26.6251 29.2195 23.0042 28.0218 19.9682 24.958C16.5143 21.4763 15.3166 17.2426 16.4586 12.7582C18.2412 5.93409 25.2603 1.81179 32.0565 3.56655ZM25.0932 30.4451C26.2909 30.7515 27.8507 31.0021 28.547 31.0021C30.5246 31.0021 33.4492 30.278 35.2875 29.3588L36.9587 28.5232L39.3263 29.1917C40.6075 29.5816 41.7217 29.888 41.8052 29.888C41.8888 29.888 41.9445 29.9994 41.9445 30.1665C41.9445 30.3058 41.7217 30.4451 41.4153 30.4451C40.2176 30.4451 36.346 32.7291 34.619 34.456C31.5273 37.5477 30.1068 41.0015 30.1068 45.4859C30.1068 49.9982 31.5273 53.4241 34.6748 56.5437C35.6496 57.5186 36.3738 58.4099 36.2624 58.5213C36.151 58.6049 33.0871 58.7163 29.4662 58.7163C24.5361 58.7163 22.0015 58.577 19.5225 58.2149C12.7541 57.1843 5.76292 55.2068 4.23099 53.8419L3.36753 53.062L3.28397 47.937C3.14471 41.3079 3.64607 39.0796 5.9579 36.0715C7.60125 33.8989 13.6176 30.5843 18.2691 29.2474L20.6366 28.5511L21.7786 29.2195C22.3914 29.5816 23.8955 30.1387 25.0932 30.4451ZM48.7686 32.5341C55.899 34.4003 60.3277 41.6979 58.5173 48.6334C57.1524 53.8976 52.8352 57.825 47.543 58.6606C40.8582 59.6912 34.3405 55.3182 32.6136 48.6891C30.1346 39.1353 39.2149 30.0551 48.7686 32.5341Z" fill="rgb(189,236,182)"/>
<path fill-rule="evenodd" clip-rule="evenodd" d="M20.4974 60.5825C24.2297 61.056 33.7277 61.0281 37.3487 60.5546C39.8276 60.2482 40.4126 60.2482 42.4737 60.666C48.9078 61.9751 55.0634 59.3848 58.6287 53.8419C60.3834 51.1123 61.0241 48.9397 61.0241 45.4859C61.0241 42.2828 60.6341 40.7508 59.13 37.8541C58.0995 35.9322 55.6205 33.314 53.7822 32.2277C52.2502 31.3364 49.1585 30.1665 48.2951 30.1665C47.9887 30.1665 46.6517 29.693 45.3147 29.0803C44.0056 28.4953 42.0838 27.7433 41.0253 27.4091L39.1591 26.7684L40.3011 25.4872C46.2618 18.7188 44.3956 7.63315 36.4852 2.98163C33.2542 1.0876 28.6584 0.474824 25.0096 1.47755C20.1353 2.78666 16.5143 6.12906 14.676 10.9477C14.0911 12.4796 13.9797 13.2317 13.9797 15.9613C13.9797 18.7467 14.0911 19.3873 14.7039 21.0306C15.5116 23.0918 15.9851 23.8995 17.3778 25.6264C18.0741 26.4899 18.2134 26.852 17.9627 26.9634C17.7399 27.0191 16.6258 27.4091 15.4838 27.8269C11.5843 29.1917 7.43413 31.5314 5.42868 33.509C1.8913 36.9906 0.999994 39.7481 0.999994 47.4635C0.999994 52.4493 1.02785 52.6721 1.72418 54.0648C2.16984 54.9839 2.81046 55.736 3.45109 56.1259C5.76292 57.5743 14.3696 59.8026 20.4974 60.5825ZM3.13576 56.6364C3.77533 57.0364 4.8003 57.4645 6.03199 57.8906C7.27847 58.3219 8.77824 58.765 10.392 59.1855C13.6179 60.0261 17.3272 60.7838 20.4216 61.1777C22.3286 61.4196 25.6692 61.5306 28.9661 61.5237C32.2616 61.5167 35.5728 61.3917 37.4244 61.1498C38.6654 60.9964 39.3912 60.9257 40.0562 60.9386C40.7136 60.9515 41.3317 61.0467 42.3545 61.2541C49.031 62.6123 55.4343 59.9173 59.1333 54.1665C60.9525 51.3367 61.6241 49.0506 61.6241 45.4859C61.6241 43.861 61.5255 42.6226 61.2233 41.41C60.9213 40.1986 60.4237 39.0436 59.6625 37.5776L59.6589 37.5705C59.1095 36.546 58.1938 35.3675 57.1942 34.3144C56.1952 33.2622 55.0724 32.2932 54.0874 31.7111L54.0839 31.7091C53.2779 31.2401 52.0878 30.7113 50.9994 30.3014C50.4526 30.0954 49.9209 29.9155 49.4652 29.7861C49.0303 29.6626 48.6031 29.5665 48.2951 29.5665C48.3011 29.5665 48.299 29.5661 48.2872 29.5638C48.2613 29.5588 48.1886 29.5447 48.0526 29.506C47.881 29.4571 47.6573 29.3836 47.3952 29.2889C46.8721 29.0999 46.219 28.8347 45.5647 28.5348L45.5595 28.5324C44.2395 27.9426 42.301 27.1834 41.2131 26.8392L40.2075 26.494L40.7514 25.8837C46.9686 18.824 45.0149 7.30127 36.7894 2.46442C33.4191 0.488765 28.6566 -0.146447 24.852 0.898616C19.7857 2.25993 16.0194 5.74314 14.1155 10.7337C13.8142 11.5228 13.6238 12.1402 13.5143 12.9221C13.4069 13.6885 13.3797 14.5964 13.3797 15.9613C13.3797 17.3532 13.4068 18.2493 13.5183 19.0111C13.6319 19.7872 13.8301 20.4046 14.1417 21.2403L14.1452 21.2496C14.9756 23.3687 15.4804 24.2294 16.9107 26.0031C17.0932 26.2293 17.2238 26.4053 17.3148 26.5401C16.8132 26.7092 16.0406 26.9843 15.2816 27.2619C11.3367 28.6432 7.09877 31.0196 5.0078 33.0813C3.19415 34.8664 2.01959 36.5066 1.31609 38.7166C0.621231 40.8994 0.399994 43.5966 0.399994 47.4635C0.399994 49.9391 0.406017 51.283 0.504573 52.1773C0.609504 53.1294 0.824096 53.6061 1.18592 54.3299C1.66637 55.3194 2.37339 56.1711 3.13576 56.6364ZM20.3941 24.5354C17.0808 21.1954 15.9534 17.1762 17.0396 12.9083C18.7392 6.40519 25.4299 2.47686 31.9038 4.14679C34.0804 4.73122 35.7981 5.73377 37.4523 7.38756C44.4727 14.489 40.5543 26.2261 30.5079 27.9595C26.7283 28.5936 23.3005 27.4685 20.3941 24.5354ZM30.6082 28.5511C41.1089 26.7406 45.259 14.4294 37.8779 6.96466C36.151 5.23776 34.3405 4.17933 32.0565 3.56655C25.2603 1.81179 18.2412 5.93409 16.4586 12.7582C15.3166 17.2426 16.5143 21.4763 19.9682 24.958C23.0042 28.0218 26.6251 29.2195 30.6082 28.5511ZM18.2691 29.2474L20.6366 28.5511L21.7786 29.2195C22.3914 29.5816 23.8955 30.1387 25.0932 30.4451C26.2909 30.7515 27.8507 31.0021 28.547 31.0021C30.5246 31.0021 33.4492 30.278 35.2875 29.3588L36.9587 28.5232L39.3263 29.1917C40.6075 29.5816 41.7217 29.888 41.8052 29.888C41.8888 29.888 41.9445 29.9994 41.9445 30.1665C41.9445 30.2336 41.8929 30.3006 41.8052 30.3521C41.7438 30.3881 41.6647 30.4166 41.5732 30.4321C41.5538 30.4354 41.5339 30.4381 41.5135 30.4402C41.4819 30.4434 41.4491 30.4451 41.4153 30.4451C40.2176 30.4451 36.346 32.7291 34.619 34.456C31.5273 37.5477 30.1068 41.0015 30.1068 45.4859C30.1068 49.9982 31.5273 53.4241 34.6748 56.5437C35.2123 57.0812 35.6736 57.5934 35.9606 57.9634C35.9679 57.9727 35.975 57.982 35.9821 57.9911C36.2014 58.2771 36.3108 58.4729 36.2624 58.5213C36.2351 58.5418 36.0304 58.5639 35.6836 58.5857C35.6788 58.586 35.674 58.5863 35.6692 58.5866C34.5939 58.6534 32.1873 58.7163 29.4662 58.7163C24.5361 58.7163 22.0015 58.577 19.5225 58.2149C12.7541 57.1843 5.76292 55.2068 4.23099 53.8419L3.36753 53.062L3.28397 47.937C3.14471 41.3079 3.64607 39.0796 5.9579 36.0715C7.60125 33.8989 13.6176 30.5843 18.2691 29.2474ZM3.9632 52.7915L3.88385 47.9244C3.81428 44.6134 3.90757 42.4628 4.2871 40.7783C4.66022 39.1221 5.31615 37.8912 6.43364 36.4371L6.43644 36.4334C6.79547 35.9588 7.42531 35.3847 8.27578 34.7603C9.11832 34.1417 10.1472 33.4955 11.2759 32.8711C13.5363 31.6207 16.1613 30.4775 18.4348 29.824L18.4384 29.823L20.5572 29.1998L21.4734 29.7361C21.4738 29.7363 21.4742 29.7365 21.4745 29.7368C22.1595 30.1411 23.7259 30.7146 24.9445 31.0264C26.1601 31.3373 27.7765 31.6021 28.547 31.6021C30.6245 31.6021 33.6405 30.8531 35.5559 29.8955L37.0193 29.1637L39.1574 29.7674C39.5588 29.8896 39.9442 30.0037 40.2872 30.1029C40.1436 30.1563 39.9981 30.2155 39.8531 30.2781C39.2654 30.5319 38.5922 30.884 37.9107 31.2862C36.5549 32.0862 35.108 33.1185 34.1948 34.0317C30.9881 37.2383 29.5068 40.8458 29.5068 45.4859C29.5068 50.1554 30.9893 53.7353 34.2516 56.9691C34.6299 57.3474 34.9652 57.7086 35.2232 58.0099C34.9264 58.024 34.5691 58.0378 34.1617 58.0504C32.936 58.0885 31.2711 58.1163 29.4662 58.1163C24.5469 58.1163 22.0463 57.9771 19.611 57.6215C16.2508 57.1098 12.8365 56.363 10.0775 55.5767C8.69732 55.1834 7.48973 54.7826 6.53897 54.3995C5.5684 54.0085 4.93089 53.6612 4.63152 53.3952C4.63105 53.3948 4.63058 53.3944 4.63011 53.3939L3.9632 52.7915ZM57.9367 48.4818L57.9365 48.4828C56.631 53.5182 52.5035 57.2695 47.4505 58.0678C41.0787 59.0495 34.8456 54.8771 33.1942 48.5378C30.8308 39.4274 39.5071 30.7512 48.6174 33.1147C55.4436 34.9017 59.6592 41.8834 57.9367 48.4818ZM48.7686 32.5341C55.899 34.4003 60.3277 41.6979 58.5173 48.6334C57.1524 53.8976 52.8352 57.825 47.543 58.6606C40.8582 59.6912 34.3405 55.3182 32.6136 48.6891C30.1346 39.1353 39.2149 30.0551 48.7686 32.5341Z" fill="rgb(189,236,182)"/>
<path d="M44.7855 36.9071C44.5627 37.1299 44.4513 38.4112 44.4513 40.8066V44.3439L40.8025 44.4275C37.6551 44.5111 37.098 44.5946 36.8195 44.9846C36.5966 45.3467 36.5966 45.6252 36.8195 45.9594C37.098 46.3772 37.6551 46.4608 40.7747 46.5444L44.4234 46.6279L44.507 50.2767C44.5906 53.3963 44.6741 53.9534 45.0919 54.2319C45.4262 54.4547 45.7047 54.4547 46.0668 54.2319C46.4567 53.9534 46.5403 53.3963 46.6239 50.2767L46.7074 46.6279L50.3562 46.5444C53.4758 46.4608 54.0329 46.3772 54.3114 45.9594C54.5342 45.6252 54.5342 45.3467 54.3114 44.9846C54.0329 44.5946 53.4758 44.5111 50.3284 44.4275L46.6796 44.3439V40.8066C46.6796 37.1856 46.5124 36.5728 45.5654 36.5728C45.3148 36.5728 44.9805 36.7121 44.7855 36.9071Z" fill="rgb(189,236,182)"/>
<path fill-rule="evenodd" clip-rule="evenodd" d="M50.3284 44.4275L46.6796 44.3439V40.8066C46.6796 37.1856 46.5124 36.5728 45.5654 36.5728C45.3148 36.5728 44.9805 36.7121 44.7855 36.9071C44.5627 37.1299 44.4513 38.4112 44.4513 40.8066V44.3439L40.8025 44.4275C37.6551 44.5111 37.098 44.5946 36.8195 44.9846C36.5966 45.3467 36.5966 45.6252 36.8195 45.9594C37.098 46.3772 37.6551 46.4608 40.7747 46.5444L44.4234 46.6279L44.507 50.2767C44.5906 53.3963 44.6741 53.9534 45.0919 54.2319C45.4262 54.4547 45.7047 54.4547 46.0668 54.2319C46.4567 53.9534 46.5403 53.3963 46.6239 50.2767L46.7074 46.6279L50.3562 46.5444C53.4758 46.4608 54.0329 46.3772 54.3114 45.9594C54.5342 45.6252 54.5342 45.3467 54.3114 44.9846C54.0329 44.5946 53.4758 44.5111 50.3284 44.4275ZM47.2941 47.2146L50.3723 47.1441C51.9209 47.1027 52.8799 47.0607 53.4871 46.9708C53.793 46.9254 54.0558 46.8621 54.2762 46.7553C54.5178 46.6382 54.685 46.4807 54.8106 46.2923C54.9649 46.0609 55.0785 45.793 55.0785 45.4824C55.0785 45.1764 54.968 44.9066 54.8224 44.6701L54.8116 44.6526L54.7996 44.6358C54.5134 44.2351 54.094 44.0837 53.4796 43.997C52.8713 43.9112 51.9079 43.8692 50.3443 43.8277L50.3421 43.8276L47.2796 43.7575V40.8066C47.2796 39.0229 47.2421 37.8761 47.0577 37.1785C46.9617 36.8152 46.8031 36.4781 46.5039 36.2489C46.2023 36.0178 45.857 35.9728 45.5654 35.9728C45.3394 35.9728 45.1124 36.0329 44.9199 36.1146C44.7258 36.1972 44.5242 36.3199 44.3613 36.4828C44.25 36.5941 44.1871 36.7249 44.15 36.8179C44.1094 36.9194 44.0784 37.031 44.0535 37.1439C44.0035 37.37 43.9659 37.6556 43.9371 37.9907C43.8791 38.664 43.8513 39.6033 43.8513 40.8066V43.7575L40.7866 43.8277C39.2229 43.8692 38.2596 43.9112 37.6513 43.997C37.0368 44.0837 36.6175 44.2351 36.3312 44.6358L36.3193 44.6526L36.3085 44.6701C36.1629 44.9066 36.0523 45.1764 36.0523 45.4824C36.0523 45.793 36.166 46.0609 36.3202 46.2923C36.4459 46.4807 36.613 46.6382 36.8547 46.7553C37.0751 46.8621 37.3379 46.9254 37.6437 46.9708C38.251 47.0607 39.21 47.1027 40.7586 47.1441L40.7609 47.1442L43.8367 47.2146L43.9072 50.2928C43.9487 51.8414 43.9906 52.8004 44.0806 53.4076C44.1259 53.7135 44.1893 53.9762 44.2961 54.1967C44.4131 54.4383 44.5706 54.6055 44.7591 54.7311C44.9905 54.8854 45.2584 54.999 45.5689 54.999C45.875 54.999 46.1447 54.8884 46.3813 54.7429L46.3988 54.7321L46.4155 54.7201C46.8157 54.4343 46.9674 54.0157 47.0543 53.404C47.1402 52.7991 47.1821 51.8425 47.2236 50.2928L47.2237 50.2904L47.2941 47.2146Z" fill="rgb(189,236,182)"/>
</svg>
