<svg width="60" height="60" viewBox="0 0 60 60" fill="none" xmlns="http://www.w3.org/2000/svg">
<path d="M27.583 0.446186C26.2679 1.08023 0.858942 26.5597 0.342308 27.7573C-0.150842 28.955 -0.103876 31.1155 0.436242 32.3131C1.25816 34.1213 3.39515 35.4599 5.48517 35.4599H6.33057V44.9941C6.33057 51.4051 6.4245 54.8337 6.58888 55.4207C7.03507 56.9237 8.42059 58.4971 9.97049 59.2955L11.356 60H17.2034H23.0507L23.6143 59.3425L24.1779 58.6849V51.0059C24.1779 43.726 24.2014 43.2798 24.6476 42.5519C25.3991 41.3542 26.2914 41.0959 29.9314 41.0959C33.5713 41.0959 34.4636 41.3542 35.2151 42.5519C35.6613 43.2798 35.6848 43.726 35.6848 51.0059V58.6849L36.2484 59.3425L36.812 60H42.6593H48.4832L49.8218 59.3425C51.2542 58.638 52.0527 57.8395 52.8981 56.2661C53.4147 55.3268 53.4147 55.092 53.4852 45.3699L53.5556 35.4599H54.401C56.4676 35.4599 58.6045 34.1213 59.4265 32.3131C59.9666 31.1155 60.0135 28.955 59.5204 27.7573C59.0038 26.5597 33.5948 1.08023 32.2797 0.446186C31.6926 0.164383 30.8237 0 29.9314 0C29.039 0 28.1701 0.164383 27.583 0.446186ZM43.5987 16.274C55.9509 28.6027 56.3501 29.0254 56.3501 29.8943C56.3501 30.5284 56.1858 30.9511 55.7631 31.3503C55.2464 31.8904 55.0116 31.9374 53.1799 31.9374C51.3482 31.9374 51.1133 31.9843 50.5967 32.5245L50.0096 33.0881V43.5851C50.0096 52.7906 49.9627 54.1526 49.6339 54.8571C48.9529 56.3131 48.3188 56.4775 43.5517 56.4775H39.3247L39.2073 49.4325C39.0899 42.6458 39.0664 42.3405 38.5497 41.2838C37.8218 39.8043 36.1544 38.3718 34.675 37.9256C33.0312 37.4325 26.8315 37.4325 25.1877 37.9256C23.7787 38.3483 22.0175 39.8043 21.2895 41.1898C20.7963 42.1057 20.7728 42.5049 20.6554 49.3151L20.538 56.4775H16.4284C11.8257 56.4775 11.0977 56.3131 10.3227 55.0685C9.87655 54.3405 9.85307 53.9178 9.85307 43.7025V33.0881L9.26599 32.5245C8.74935 31.9843 8.51452 31.9374 6.68282 31.9374C4.85111 31.9374 4.61628 31.8904 4.09965 31.3503C3.67695 30.9511 3.51256 30.5284 3.51256 29.8943C3.51256 29.0254 3.91178 28.6027 16.264 16.274C28.8276 3.71037 29.0155 3.52251 29.9314 3.52251C30.8472 3.52251 31.0351 3.71037 43.5987 16.274Z"
fill="rgb(30,89,69)" stroke="rgb(30,89,69)"/>
</svg>
