<svg width="30" height="30" viewBox="0 0 30 30" fill="none" xmlns="http://www.w3.org/2000/svg">
<circle cx="15" cy="15" r="15" fill="rgb(30,89,69)"/>
<path d="M20.3401 7.0526C19.6358 7.23258 19.4089 7.43603 14.4478 12.4049L9.5024 17.3425L8.7512 19.6118C8.33648 20.8638 8 21.9593 8 22.061C8 22.2957 8.4069 22.7026 8.64165 22.7026C8.74338 22.7026 9.83888 22.3662 11.0909 21.9514L13.3601 21.2002L18.3055 16.2548C23.9317 10.6365 23.6892 10.9338 23.6892 9.71311C23.6892 9.15753 23.65 8.97756 23.4779 8.60196C23.2197 8.03856 22.6719 7.4908 22.1242 7.2404C21.6468 7.0213 20.8174 6.93523 20.3401 7.0526ZM21.6234 8.58631C22.1163 8.83671 22.3902 9.47836 22.2415 10.0418C22.1633 10.3391 21.6234 10.9103 17.3665 15.1671L12.5776 19.9639L11.263 20.4021C10.5353 20.6447 9.92495 20.8246 9.90148 20.8012C9.878 20.7777 10.058 20.1673 10.3006 19.4396L10.7388 18.125L15.4964 13.3674C19.1976 9.66616 20.3244 8.58631 20.567 8.50023C20.8956 8.37503 21.2869 8.40633 21.6234 8.58631Z" fill="white"/>
</svg>
