<svg width="80" height="80" viewBox="0 0 80 80" fill="none" xmlns="http://www.w3.org/2000/svg">
<circle cx="40" cy="40" r="40" fill="rgb(30,89,69)"/>
<path d="M36.4861 35.8932V36.3819L35.9975 36.3931L23.8416 36.6715C23.8412 36.6715 23.8408 36.6715 23.8405 36.6715C18.5891 36.8109 15.5346 36.95 13.6777 37.212C11.8435 37.4708 11.3153 37.8333 10.9735 38.3049C10.6374 38.8548 10.5 39.2928 10.5 39.6868C10.5 40.0806 10.6373 40.4954 10.9729 40.9987C11.1582 41.2767 11.3815 41.4935 11.7638 41.6788C12.1638 41.8726 12.7497 42.0373 13.6696 42.1736C15.5128 42.4467 18.542 42.5857 23.7481 42.7252C23.7483 42.7252 23.7486 42.7252 23.7489 42.7252L35.9047 43.0036L36.3822 43.0145L36.3931 43.492L36.6715 55.6478C36.6715 55.6481 36.6715 55.6484 36.6715 55.6487C36.811 60.8547 36.9501 63.8839 37.2231 65.7272C37.3594 66.647 37.5242 67.2329 37.718 67.6329C37.9032 68.0153 38.12 68.2385 38.398 68.4239C38.9013 68.7594 39.3162 68.8967 39.71 68.8967C40.104 68.8967 40.5419 68.7593 41.0919 68.4233C41.5639 68.0811 41.9261 67.5524 42.1848 65.7302C42.4467 63.8851 42.5858 60.854 42.7252 55.6492C42.7252 55.6487 42.7252 55.6483 42.7252 55.6478L43.0036 43.492L43.0145 43.0145L43.492 43.0036L55.6479 42.7252C55.6481 42.7252 55.6484 42.7252 55.6487 42.7252C60.8547 42.5857 63.884 42.4467 65.7272 42.1736C66.647 42.0373 67.2329 41.8726 67.6329 41.6788C68.0153 41.4935 68.2385 41.2767 68.4239 40.9987C68.7594 40.4954 68.8968 40.0806 68.8968 39.6868C68.8968 39.2928 68.7594 38.8548 68.4233 38.3049C68.0815 37.8333 67.5532 37.4708 65.719 37.212C63.8621 36.95 60.8076 36.8109 55.5563 36.6715C55.5559 36.6715 55.5555 36.6715 55.5552 36.6715L43.3992 36.3931L42.9107 36.3819V35.8932V24.1067C42.9107 18.0519 42.7678 14.5989 42.2544 12.6568C42.0009 11.6978 41.6762 11.1884 41.3056 10.9044C40.937 10.6221 40.4416 10.5 39.6984 10.5C39.3647 10.5 38.9448 10.595 38.525 10.7734C38.1067 10.9511 37.7236 11.1969 37.4533 11.4672C37.43 11.4905 37.3737 11.5664 37.3031 11.7432C37.2354 11.9128 37.1669 12.1434 37.1007 12.4426C36.9684 13.041 36.8547 13.869 36.7627 14.9384C36.5789 17.0748 36.4861 20.1206 36.4861 24.1067V35.8932Z"
fill="white" stroke="rgb(30,89,69)"/>
</svg>
