<svg width="60" height="60" viewBox="0 0 60 60" fill="none" xmlns="http://www.w3.org/2000/svg">
<path d="M12.9117 0.223495C7.15472 1.33698 2.46388 5.45923 0.63966 10.9556C0.0947645 12.614 0 13.2536 0 15.8359C0 18.4183 0.0947645 19.0579 0.63966 20.7163C1.75314 24.1041 4.47762 27.563 7.24948 29.1977C7.88914 29.5531 8.38666 29.9559 8.38666 30.0506C8.38666 30.1454 7.88914 30.5481 7.27317 30.9035C4.47762 32.5382 1.75314 35.9971 0.63966 39.3849C0.0947645 41.0433 0 41.683 0 44.2653C0 46.8476 0.0947645 47.4873 0.63966 49.1457C2.20327 53.8839 6.11231 57.7929 10.8505 59.3565C12.5089 59.9014 13.1486 59.9962 15.7309 59.9962C18.3132 59.9962 18.9529 59.9014 20.6113 59.3565C23.9754 58.243 27.2922 55.6607 29.1164 52.7467C29.5191 52.107 29.8745 51.6095 29.9456 51.6095C30.0166 51.6095 30.372 52.107 30.7748 52.7467C32.599 55.6607 35.9157 58.243 39.2799 59.3565C40.9146 59.8777 41.6253 59.9962 44.0418 59.9962C46.5767 60.0199 47.1216 59.9488 48.9932 59.3328C53.8973 57.7218 57.6168 54.0023 59.2278 49.0746C59.8438 47.2267 59.9148 46.6581 59.8911 44.1468C59.8911 41.7303 59.7727 41.0196 59.2515 39.3849C58.138 36.0208 55.5557 32.704 52.6417 30.8798C52.002 30.4771 51.5045 30.1217 51.5045 30.0506C51.5045 29.9795 52.1441 29.5294 52.9023 29.0319C55.7452 27.2077 58.1143 24.0805 59.2278 20.6452C59.8438 18.7973 59.9148 18.2287 59.8911 15.7175C59.8911 13.301 59.7727 12.5903 59.2515 10.9556C56.9771 4.08515 50.3436 -0.439854 43.2126 0.0339699C38.1664 0.365643 33.3808 3.18489 30.7748 7.35452C30.372 7.99418 30.0166 8.4917 29.9456 8.4917C29.8745 8.4917 29.5191 7.99418 29.1164 7.35452C27.5765 4.89065 24.7809 2.47415 22.009 1.26591C19.4741 0.128735 15.5888 -0.297707 12.9117 0.223495ZM18.0052 3.54025C23.0515 4.46421 27.2922 8.84706 28.0977 14.0117C29.2348 21.3797 23.2173 28.3922 15.7309 28.3922C9.71336 28.3922 4.31178 23.7014 3.36414 17.6602C2.08482 9.32089 9.64229 2.02402 18.0052 3.54025ZM46.4346 3.54025C50.1304 4.20361 53.7315 6.97546 55.3661 10.4107C57.7353 15.3147 56.7876 20.7874 52.9496 24.6254C47.9982 29.5768 40.346 29.5768 35.3708 24.6254C30.372 19.6265 30.372 12.0454 35.3708 7.04654C38.4033 4.01408 42.2886 2.78214 46.4346 3.54025ZM30.7748 24.3174C31.7935 25.9757 33.902 28.0843 35.4419 29.0319C36.2 29.5057 36.816 29.9559 36.816 30.0506C36.816 30.1454 36.2 30.5955 35.4419 31.0693C33.902 32.017 31.7935 34.1255 30.7748 35.7839C30.372 36.4235 30.0166 36.921 29.9456 36.921C29.8745 36.921 29.4244 36.2814 28.9269 35.5233C27.9081 33.936 25.8233 31.8985 24.2123 30.8798C23.5727 30.4771 23.0751 30.1217 23.0751 30.0506C23.0751 29.9795 23.5727 29.6242 24.1649 29.2451C25.7996 28.2027 27.8134 26.2363 28.8795 24.6254C29.4007 23.8435 29.8745 23.1802 29.9456 23.1802C30.0166 23.1802 30.372 23.6777 30.7748 24.3174ZM18.3606 32.0407C22.9567 33.012 26.842 36.85 27.9318 41.4697C29.5665 48.4586 24.7572 55.5186 17.5788 56.632C9.40537 57.8877 2.10851 50.5908 3.36414 42.4411C4.47762 35.31 11.3244 30.5481 18.3606 32.0407ZM46.4346 31.9696C50.1304 32.6329 53.7315 35.4048 55.3661 38.84C57.7353 43.7441 56.7876 49.2167 52.9496 53.0547C47.9982 58.0061 40.3223 58.0061 35.3945 53.0784C30.372 48.0559 30.3483 40.451 35.3708 35.4996C38.4744 32.4434 42.2886 31.2115 46.4346 31.9696Z"
fill="rgb(189,236,182)"/>
<path d="M8.95478 11.3923C8.24405 12.103 8.22035 12.6716 8.86001 13.5008L9.33384 14.1168H15.9437H22.5535L23.0273 13.5008C23.667 12.6716 23.6433 12.103 22.9325 11.3923L22.364 10.8H15.9437H9.52337L8.95478 11.3923Z"
fill="rgb(189,236,182)"/>
<path d="M8.95478 17.9923C8.24405 18.703 8.22035 19.2716 8.86001 20.1008L9.33384 20.7168H15.9437H22.5535L23.0273 20.1008C23.667 19.2716 23.6433 18.703 22.9325 17.9923L22.364 17.4H15.9437H9.52337L8.95478 17.9923Z"
fill="rgb(189,236,182)"/>
<path d="M37.1713 14.7699C36.4606 15.4806 36.4369 16.0492 37.0766 16.8784L37.5504 17.4943H44.1602H50.77L51.2439 16.8784C51.8835 16.0492 51.8598 15.4806 51.1491 14.7699L50.5805 14.1776H44.1602H37.7399L37.1713 14.7699Z"
fill="rgb(189,236,182)"/>
<path d="M10.8032 38.6268C10.282 38.8874 9.87925 39.7877 10.0214 40.4747C10.0451 40.6642 10.8506 41.6119 11.7745 42.5358L13.4566 44.2653L11.7272 46.0184C10.4478 47.2977 9.9977 47.9374 9.9977 48.3875C9.97401 49.2878 10.6847 49.9511 11.6324 49.9511C12.2957 49.9511 12.6985 49.6905 14.12 48.2691L15.802 46.587L17.4841 48.2454C18.408 49.1693 19.332 49.9511 19.5215 49.9748C20.2796 50.117 21.1325 49.7142 21.4168 49.0272C21.7959 48.1032 21.4168 47.4162 19.5452 45.592L18.1001 44.1705L19.8769 42.3463C20.8482 41.3513 21.6537 40.4036 21.6537 40.2852C21.6537 39.6692 21.0615 38.8163 20.4692 38.5794C19.5452 38.2003 18.716 38.6742 17.1524 40.4747L15.8968 41.9199L14.3332 40.4036C12.8643 38.9585 11.9878 38.3188 11.5376 38.3662C11.4429 38.3662 11.1112 38.4846 10.8032 38.6268Z"
fill="rgb(189,236,182)"/>
<path d="M43.0941 37.2764C42.5492 37.7976 42.5018 38.0108 42.5018 40.2378V42.6069H40.038C37.6452 42.6069 37.5504 42.6306 37.0766 43.2229C36.4369 44.0521 36.4606 44.6207 37.1713 45.3314C37.6925 45.8763 37.9058 45.9237 40.1327 45.9237H42.5018V48.2928C42.5018 50.5198 42.5492 50.733 43.0941 51.2542C43.4021 51.5859 43.8996 51.8465 44.1602 51.8465C44.4208 51.8465 44.9183 51.5859 45.2263 51.2542C45.7712 50.733 45.8186 50.5198 45.8186 48.2928V45.9237H48.1877C50.4147 45.9237 50.6279 45.8763 51.1491 45.3314C51.8598 44.6207 51.8835 44.0521 51.2439 43.2229C50.77 42.6306 50.6753 42.6069 48.2825 42.6069H45.8186V40.2378C45.8186 38.0108 45.7712 37.7976 45.2263 37.2764C44.9183 36.9447 44.4445 36.6841 44.1602 36.6841C43.8996 36.6841 43.4021 36.9447 43.0941 37.2764Z"
fill="rgb(189,236,182)"/>
</svg>
